<svg viewBox="0 0 861 270" fill="none" xmlns="http://www.w3.org/2000/svg">
<path d="M435.574 190.523V128.143C435.574 117.377 432.993 109.192 427.83 103.588C422.668 97.9845 414.555 95.1826 403.493 95.1826C395.97 95.1826 389.996 95.9199 385.571 97.3947C381.146 98.7219 378.344 99.6805 377.164 100.27V190.523H354.375V85.6706C354.965 85.3757 356.588 84.7121 359.243 83.6798C361.898 82.6475 365.438 81.5414 369.863 80.3617C374.288 79.1819 379.45 78.1496 385.35 77.2647C391.25 76.3799 397.74 75.9375 404.82 75.9375C412.933 75.9375 420.308 77.0435 426.945 79.2556C433.583 81.3202 439.188 84.3434 443.76 88.3251C448.48 92.3069 452.094 97.0997 454.602 102.704C457.109 108.308 458.363 114.649 458.363 121.728V190.523H435.574Z" fill="black"/>
<path d="M606.56 135C606.56 143.406 605.085 151.222 602.135 158.448C599.332 165.674 595.35 171.942 590.187 177.251C585.025 182.412 578.83 186.541 571.602 189.638C564.374 192.588 556.409 194.063 547.707 194.063C539.004 194.063 530.966 192.588 523.591 189.638C516.363 186.541 510.168 182.412 505.005 177.251C499.843 171.942 495.787 165.674 492.837 158.448C490.034 151.222 488.633 143.406 488.633 135C488.633 126.594 490.034 118.778 492.837 111.552C495.787 104.326 499.843 98.132 505.005 92.9705C510.168 87.6615 516.363 83.5323 523.591 80.5829C530.966 77.486 539.004 75.9375 547.707 75.9375C556.409 75.9375 564.374 77.486 571.602 80.5829C578.83 83.5323 585.025 87.6615 590.187 92.9705C595.35 98.132 599.332 104.326 602.135 111.552C605.085 118.778 606.56 126.594 606.56 135ZM582.886 135C582.886 129.101 582.075 123.718 580.452 118.852C578.83 113.838 576.47 109.561 573.372 106.022C570.422 102.335 566.734 99.533 562.309 97.6159C558.032 95.5513 553.164 94.519 547.707 94.519C542.102 94.519 537.087 95.5513 532.662 97.6159C528.384 99.533 524.697 102.335 521.599 106.022C518.649 109.561 516.363 113.838 514.74 118.852C513.118 123.718 512.307 129.101 512.307 135C512.307 140.899 513.118 146.355 514.74 151.369C516.363 156.236 518.649 160.513 521.599 164.199C524.697 167.739 528.384 170.541 532.662 172.605C537.087 174.522 542.102 175.481 547.707 175.481C553.164 175.481 558.032 174.522 562.309 172.605C566.734 170.541 570.422 167.739 573.372 164.199C576.47 160.513 578.83 156.236 580.452 151.369C582.075 146.355 582.886 140.899 582.886 135Z" fill="black"/>
<path d="M738.985 84.3434C738.1 87.5878 736.552 91.9382 734.339 97.3947C732.274 102.704 729.84 108.676 727.038 115.313C724.235 121.949 721.138 128.954 717.745 136.327C714.5 143.553 711.181 150.632 707.789 157.563C704.544 164.347 701.373 170.762 698.275 176.808C695.325 182.707 692.744 187.647 690.531 191.629H666.857C664.202 186.91 661.4 181.749 658.45 176.145C655.647 170.393 652.771 164.642 649.821 158.89C647.019 152.992 644.29 147.166 641.635 141.415C638.98 135.664 636.472 130.355 634.112 125.488C631.9 120.474 629.909 116.05 628.139 112.216C626.516 108.381 625.262 105.432 624.377 103.367C623.492 101.303 622.607 99.0906 621.722 96.731C620.837 94.3715 620.395 92.1594 620.395 90.0948C620.395 87.4403 621.28 85.007 623.05 82.7949C624.82 80.5829 627.844 79.4768 632.121 79.4768C635.071 79.4768 637.357 79.7718 638.98 80.3617C640.602 80.9515 641.487 81.3202 641.635 81.4677C644.142 88.3989 647.019 95.9937 650.264 104.252C653.656 112.511 657.049 120.695 660.441 128.806C663.981 136.77 667.374 144.438 670.619 151.812C673.864 159.038 676.74 165.158 679.248 170.172C681.018 166.78 683.304 161.987 686.106 155.794C689.056 149.452 692.08 142.521 695.178 135C698.423 127.479 701.668 119.737 704.913 111.773C708.158 103.81 711.034 96.5098 713.541 89.8736C714.721 86.6292 716.196 84.1222 717.966 82.3525C719.736 80.4354 722.686 79.4768 726.816 79.4768C730.357 79.4768 733.159 80.1404 735.224 81.4677C737.437 82.7949 738.69 83.7535 738.985 84.3434Z" fill="black"/>
<path d="M837.836 89.8736C837.836 86.3343 838.869 83.7535 840.934 82.1313C842.999 80.3617 845.949 79.4768 849.784 79.4768C852.291 79.4768 854.504 79.7718 856.421 80.3617C858.486 80.9515 859.887 81.394 860.625 81.6889V190.523C859.592 190.818 857.749 191.113 855.094 191.408C852.586 191.703 849.489 191.998 845.801 192.293C842.114 192.735 838.057 193.03 833.632 193.178C829.207 193.473 824.709 193.62 820.136 193.62C806.713 193.62 795.798 191.998 787.391 188.754C779.131 185.509 772.567 180.79 767.7 174.596C761.652 166.78 758.628 156.383 758.628 143.406V89.8736C758.628 86.3343 759.661 83.7535 761.726 82.1313C763.791 80.3617 766.741 79.4768 770.576 79.4768C773.083 79.4768 775.296 79.7718 777.213 80.3617C779.278 80.9515 780.68 81.394 781.417 81.6889V140.973C781.417 152.18 784.22 160.586 789.825 166.19C795.577 171.794 805.238 174.596 818.809 174.596C823.971 174.596 828.101 174.449 831.199 174.154C834.444 173.711 836.656 173.343 837.836 173.048V89.8736Z" fill="black"/>
<path fill-rule="evenodd" clip-rule="evenodd" d="M207.9 108.217C207.9 115.476 199.087 119.071 194.01 113.882L90.076 7.65494C104.13 2.69721 119.25 0 135 0C161.852 0 186.874 7.8399 207.9 21.3556V108.217ZM245.7 57.7105V108.217C245.7 149.352 195.759 169.719 166.992 140.317L55.2224 26.0826C21.738 50.6501 0 90.2865 0 135C0 163.747 8.98505 190.395 24.3 212.29V162.053C24.3 120.918 74.2409 100.551 103.008 129.953L214.624 244.03C248.195 219.471 270 179.782 270 135C270 106.253 261.015 79.605 245.7 57.7105ZM75.9897 156.388L179.728 262.414C165.73 267.328 150.677 270 135 270C108.148 270 83.1262 262.16 62.1 248.644V162.053C62.1 154.794 70.9131 151.199 75.9897 156.388Z" fill="url(#paint0_radial_1740_6029)"/>
<path fill-rule="evenodd" clip-rule="evenodd" d="M207.9 108.217C207.9 115.476 199.087 119.071 194.01 113.882L90.076 7.65494C104.13 2.69721 119.25 0 135 0C161.852 0 186.874 7.8399 207.9 21.3556V108.217ZM245.7 57.7105V108.217C245.7 149.352 195.759 169.719 166.992 140.317L55.2224 26.0826C21.738 50.6501 0 90.2865 0 135C0 163.747 8.98505 190.395 24.3 212.29V162.053C24.3 120.918 74.2409 100.551 103.008 129.953L214.624 244.03C248.195 219.471 270 179.782 270 135C270 106.253 261.015 79.605 245.7 57.7105ZM75.9897 156.388L179.728 262.414C165.73 267.328 150.677 270 135 270C108.148 270 83.1262 262.16 62.1 248.644V162.053C62.1 154.794 70.9131 151.199 75.9897 156.388Z" fill="url(#paint1_linear_1740_6029)"/>
<path fill-rule="evenodd" clip-rule="evenodd" d="M207.9 108.217C207.9 115.476 199.087 119.071 194.01 113.882L90.076 7.65494C104.13 2.69721 119.25 0 135 0C161.852 0 186.874 7.8399 207.9 21.3556V108.217ZM245.7 57.7105V108.217C245.7 149.352 195.759 169.719 166.992 140.317L55.2224 26.0826C21.738 50.6501 0 90.2865 0 135C0 163.747 8.98505 190.395 24.3 212.29V162.053C24.3 120.918 74.2409 100.551 103.008 129.953L214.624 244.03C248.195 219.471 270 179.782 270 135C270 106.253 261.015 79.605 245.7 57.7105ZM75.9897 156.388L179.728 262.414C165.73 267.328 150.677 270 135 270C108.148 270 83.1262 262.16 62.1 248.644V162.053C62.1 154.794 70.9131 151.199 75.9897 156.388Z" fill="url(#paint2_linear_1740_6029)"/>
<defs>
<radialGradient id="paint0_radial_1740_6029" cx="0" cy="0" r="1" gradientUnits="userSpaceOnUse" gradientTransform="translate(135 135) rotate(135) scale(190.919 190.919)">
<stop offset="0.34" stop-color="#FF006A"/>
<stop offset="0.613333" stop-color="#E300BD"/>
<stop offset="0.766667" stop-color="#FF4CE1"/>
</radialGradient>
<linearGradient id="paint1_linear_1740_6029" x1="166.5" y1="-9" x2="135" y2="270" gradientUnits="userSpaceOnUse">
<stop offset="0.0851785" stop-color="#FFBA33"/>
<stop offset="0.553333" stop-color="#FF006A" stop-opacity="0"/>
</linearGradient>
<linearGradient id="paint2_linear_1740_6029" x1="135" y1="0" x2="135" y2="270" gradientUnits="userSpaceOnUse">
<stop offset="0.546667" stop-opacity="0"/>
<stop offset="1" stop-opacity="0.6"/>
</linearGradient>
</defs>
</svg>
