<?xml version="1.0" encoding="iso-8859-1"?>
<!-- Generator: Adobe Illustrator 19.0.0, SVG Export Plug-In . SVG Version: 6.00 Build 0)  -->
<svg version="1.1" id="Layer_1" xmlns="http://www.w3.org/2000/svg" xmlns:xlink="http://www.w3.org/1999/xlink" x="0px" y="0px"
	 viewBox="0 0 503.689 503.689" style="enable-background:new 0 0 503.689 503.689;" xml:space="preserve">
<path style="fill:#E4E7E7;" d="M16.502,135.838L396.564,34.225c11.815-3.151,24.418,3.938,27.569,15.754l75.225,279.237
	c3.151,11.815-3.938,24.025-16.148,27.175L103.149,458.004c-11.815,3.151-24.418-3.938-27.569-15.754L0.749,163.013
	C-2.402,151.198,4.687,138.989,16.502,135.838z"/>
<path style="fill:#208DB2;" d="M48.404,158.287L380.81,69.672c9.058-2.363,18.511,3.151,21.268,12.209l62.228,231.188
	c2.363,9.058-3.151,18.511-12.209,20.874L119.69,422.558c-9.058,2.363-18.511-3.151-21.268-12.209L36.195,179.161
	C33.438,170.102,38.952,160.65,48.404,158.287z"/>
<path style="fill:#F3F3F3;" d="M85.425,131.899H481.24c12.603,0,22.449,10.24,22.449,22.449v293.415
	c0,12.603-10.24,22.449-22.449,22.449H85.425c-12.603,0-22.449-10.24-22.449-22.449V154.349
	C62.976,142.139,73.216,131.899,85.425,131.899z"/>
<path style="fill:#A3E0F5;" d="M111.813,163.407h343.828c9.452,0,17.329,7.877,17.329,17.329V421.77
	c0,9.452-7.877,17.329-17.329,17.329H111.813c-9.452,0-17.329-7.877-17.329-17.329V180.736
	C94.484,171.284,101.967,163.407,111.813,163.407z"/>
<path style="fill:#EFC75E;" d="M94.484,180.736v84.283c3.938,0.394,7.877,0.788,11.815,0.788c50.018,0,90.585-40.566,90.585-90.585
	c0-3.938-0.394-7.877-0.788-11.815h-84.283C101.967,163.407,94.484,171.284,94.484,180.736z"/>
<path style="fill:#3DB39E;" d="M123.235,356.392c-9.846,0-19.692,0.788-28.751,1.969v63.409c0,9.452,7.877,17.329,17.329,17.329
	h131.151c0.788-3.545,1.182-6.695,1.182-10.24C244.145,388.687,190.189,356.392,123.235,356.392z"/>
<path style="fill:#4BC2AD;" d="M397.745,320.945c-107.914,0-195.742,52.775-196.923,118.154h254.425
	c9.452,0,17.329-7.877,17.329-17.329v-91.766C449.339,324.49,424.133,320.945,397.745,320.945z"/>
<g>
</g>
<g>
</g>
<g>
</g>
<g>
</g>
<g>
</g>
<g>
</g>
<g>
</g>
<g>
</g>
<g>
</g>
<g>
</g>
<g>
</g>
<g>
</g>
<g>
</g>
<g>
</g>
<g>
</g>
</svg>
