<svg data-name="Layer 1" xmlns="http://www.w3.org/2000/svg" viewBox="0 0 512 512">
    <title>corporation</title>
    <path d="M94.118,285.322h35.257a6,6,0,0,0,0-12H94.118a6,6,0,0,0,0,12Z"/>
    <path d="M180.79,152.021h64.856a6,6,0,0,0,0-12H180.79a6,6,0,0,0,0,12Z"/>
    <path d="M295.1,209.17h41.816a6,6,0,0,0,0-12H295.1a6,6,0,0,0,0,12Z"/>
    <path d="M180.79,186.088h64.856a6,6,0,0,0,0-12H180.79a6,6,0,0,0,0,12Z"/>
    <path d="M180.79,220.155h64.856a6,6,0,0,0,0-12H180.79a6,6,0,0,0,0,12Z"/>
    <path d="M180.79,254.223h64.856a6,6,0,1,0,0-12H180.79a6,6,0,0,0,0,12Z"/>
    <path d="M180.79,288.29h64.856a6,6,0,1,0,0-12H180.79a6,6,0,0,0,0,12Z"/>
    <path d="M295.1,242.551h41.816a6,6,0,0,0,0-12H295.1a6,6,0,0,0,0,12Z"/>
    <path d="M295.1,275.932h41.816a6,6,0,1,0,0-12H295.1a6,6,0,0,0,0,12Z"/>
    <path d="M295.1,175.79h41.816a6,6,0,0,0,0-12H295.1a6,6,0,0,0,0,12Z"/>
    <path d="M295.1,142.409h41.816a6,6,0,0,0,0-12H295.1a6,6,0,0,0,0,12Z"/>
    <path d="M180.79,117.953h64.856a6,6,0,0,0,0-12H180.79a6,6,0,0,0,0,12Z"/>
    <path d="M379.457,295.767H399.41a6,6,0,0,0,0-12H379.457a6,6,0,0,0,0,12Z"/>
    <path d="M379.457,273.242H399.41a6,6,0,0,0,0-12H379.457a6,6,0,0,0,0,12Z"/>
    <path d="M379.457,250.717H399.41a6,6,0,0,0,0-12H379.457a6,6,0,0,0,0,12Z"/>
    <path d="M94.118,216.768h35.257a6,6,0,0,0,0-12H94.118a6,6,0,1,0,0,12Z"/>
    <path d="M94.118,239.619h35.257a6,6,0,0,0,0-12H94.118a6,6,0,1,0,0,12Z"/>
    <path d="M94.118,262.471h35.257a6,6,0,0,0,0-12H94.118a6,6,0,0,0,0,12Z"/>
    <path d="M86.159,137.508v35.923l-18.25,8.981a6,6,0,0,0-3.35,5.383V310.559C64.559,416.12,150.439,502,256,502s191.441-85.88,191.441-191.441a189.487,189.487,0,0,0-19.4-84.036v-8.252a6,6,0,0,0-6-6H411.955v-9.735a6,6,0,0,0-6-6h-9.447V185.067a6,6,0,0,0-12,0v11.469h-9.447a6,6,0,0,0-6,6v9.735h-4.085V102.634a6,6,0,0,0-6-6H280.548V73.665a6,6,0,0,0-6-6h-11.28V40.005a6,6,0,0,0-6-6h-40.32V16a6,6,0,0,0-12,0V34.005H169.167a6,6,0,0,0-6,6v27.66h-11.28a6,6,0,0,0-6,6V144.04l-12.471,6.137V137.508a6,6,0,0,0-6-6H115.788v-4.893a6,6,0,0,0-12,0v4.893H92.159A6,6,0,0,0,86.159,137.508ZM116.7,423.534a178.568,178.568,0,0,1-40.03-106.975h67.563a257.66,257.66,0,0,0,12.194,74.789A191.08,191.08,0,0,0,116.7,423.534Zm7.91,9.1a179.066,179.066,0,0,1,35.946-29.74c13.677,35.15,35.525,64.171,64.065,84.359A179.327,179.327,0,0,1,124.609,432.63ZM250,488.617c-36.193-18.609-63.37-50.8-78.919-91.832A179.108,179.108,0,0,1,250,375.591Zm0-125.036a191.023,191.023,0,0,0-82.878,21.711,246.54,246.54,0,0,1-10.884-68.733H250Zm105.762-47.022a246.707,246.707,0,0,1-10.818,68.529A188.863,188.863,0,0,0,262,363.552V316.559ZM340.994,396.6c-15.537,41.128-42.745,73.384-78.994,92.022V375.554A176.961,176.961,0,0,1,340.994,396.6ZM287.38,487.249c28.589-20.223,50.463-49.307,64.135-84.539a177.156,177.156,0,0,1,35.894,29.9A179.321,179.321,0,0,1,287.38,487.249Zm107.941-63.74a189.1,189.1,0,0,0-39.684-32.347,257.766,257.766,0,0,0,12.131-74.6h67.563A178.566,178.566,0,0,1,395.321,423.509Zm40.015-118.95h-7.3v-45.2A178.174,178.174,0,0,1,435.336,304.559Zm-54.275-96.023h18.894v3.735H381.061Zm34.98,15.735v80.288H364.976V224.271ZM352.976,108.634V304.559H280.548V108.634ZM175.167,46.005h76.1v21.66h-76.1Zm93.381,33.66V304.559H157.887V79.665ZM145.887,157.413V304.559H76.559V191.529Zm-47.728-13.9h23.257v12.574L98.159,167.526Z"/>
</svg>
